<svg xmlns="http://www.w3.org/2000/svg" width="1200" height="700" viewBox="0 0 1200 700" ><rect width="1200" height="700" x="0" y="0" fill="#fbfbfb" id="backgorund"/><g transform="translate(30,30)" id="visualization"><g><rect x="1135" y="1.1368683772161603e-13" height="104.37937122949828" width="5" fill="black"><title>Gas: 2156.1400000000003</title></rect><rect x="0" y="5.000000000000057" height="104.37791892067929" width="5" fill="black"><title>Gas: 2156.11</title></rect><rect x="0" y="114.37791892067935" height="102.46280769142749" width="5" fill="black"><title>Natural Gas: 2116.55</title></rect><rect x="1135" y="109.37937122949839" height="102.46280769142751" width="5" fill="black"><title>Natural Gas: 2116.5499999999997</title></rect><rect x="0" y="221.84072661210683" height="98.48202921869307" width="5" fill="black"><title>Gas imports: 2034.32</title></rect><rect x="0" y="325.3227558307999" height="57.395728627735366" width="5" fill="black"><title>Thermal generation: 1185.6100000000001</title></rect><rect x="1135" y="216.8421789209259" height="57.395728627735366" width="5" fill="black"><title>Thermal generation: 1185.61</title></rect><rect x="1135" y="279.23790754866127" height="42.979627187925246" width="5" fill="black"><title>Liquid: 887.82</title></rect><rect x="0" y="387.7184844585353" height="42.97817487910629" width="5" fill="black"><title>Liquid: 887.7900000000001</title></rect><rect x="0" y="435.69665933764156" height="42.60493151263688" width="5" fill="black"><title>Oil: 880.08</title></rect><rect x="1135" y="327.2175347365865" height="42.60444740969717" width="5" fill="black"><title>Oil: 880.07</title></rect><rect x="1135" y="374.8219821462837" height="41.141972429017244" width="5" fill="black"><title>Industry: 849.8599999999999</title></rect><rect x="0" y="483.30159085027844" height="37.390658749676504" width="5" fill="black"><title>Oil imports: 772.37</title></rect><rect x="1135" y="420.96395457530093" height="32.72535872027828" width="5" fill="black"><title>Losses: 676</title></rect><rect x="1135" y="458.6893132955792" height="28.147197220016892" width="5" fill="black"><title>Electricity grid: 581.4300000000001</title></rect><rect x="0" y="525.692249599955" height="28.14622901413759" width="5" fill="black"><title>Electricity grid: 581.4100000000001</title></rect><rect x="1135" y="491.8365105155961" height="28.00971198515657" width="5" fill="black"><title>Heating and cooling - homes: 578.59</title></rect><rect x="1135" y="524.8462225007527" height="16.25859722811458" width="5" fill="black"><title>Road transport: 335.84999999999997</title></rect><rect x="1135" y="546.1048197288673" height="9.129213235902512" width="5" fill="black"><title>International aviation: 188.58</title></rect><rect x="1135" y="560.2340329647698" height="8.369655723593041" width="5" fill="black"><title>Heating and cooling - commercial: 172.89</title></rect><rect x="1135" y="573.6036886883628" height="6.766306787475287" width="5" fill="black"><title>Solid: 139.77</title></rect><rect x="0" y="558.8384786140925" height="6.7658226845355784" width="5" fill="black"><title>Solid: 139.76</title></rect><rect x="1135" y="585.3699954758381" height="6.269133068455631" width="5" fill="black"><title>International shipping: 129.5</title></rect><rect x="1135" y="596.6391285442937" height="5.3943590565097566" width="5" fill="black"><title>Lighting &amp; appliances - homes: 111.43</title></rect><rect x="0" y="570.6043012986281" height="5.213788660020668" width="5" fill="black"><title>Oil reserves: 107.7</title></rect><rect x="1135" y="607.0334876008035" height="4.907835602162436" width="5" fill="black"><title>Lighting &amp; appliances - commercial: 101.38</title></rect><rect x="0" y="580.8180899586488" height="4.619310250131662" width="5" fill="black"><title>Bio-conversion: 95.42000000000002</title></rect><rect x="1135" y="616.9413232029659" height="4.619310250131548" width="5" fill="black"><title>Bio-conversion: 95.42</title></rect><rect x="0" y="590.4374002087804" height="4.615437426614335" width="5" fill="black"><title>Coal: 95.34</title></rect><rect x="1135" y="626.5606334530975" height="4.61495332367474" width="5" fill="black"><title>Coal: 95.33</title></rect><rect x="0" y="600.0528376353948" height="3.980778472734414" width="5" fill="black"><title>Gas reserves: 82.23</title></rect><rect x="0" y="609.0336161081292" height="3.096322401995508" width="5" fill="black"><title>Coal reserves: 63.96</title></rect><rect x="0" y="617.1299385101247" height="2.642233844604675" width="5" fill="black"><title>Other waste: 54.580000000000005</title></rect><rect x="0" y="624.7721723547294" height="1.8115132001668144" width="5" fill="black"><title>Agricultural 'waste': 37.42</title></rect><rect x="0" y="631.5836855548962" height="1.5186309216792324" width="5" fill="black"><title>Coal imports: 31.37</title></rect><rect x="1135" y="636.1755867767722" height="1.0887475112707534" width="5" fill="black"><title>National navigation: 22.49</title></rect><rect x="0" y="638.1023164765754" height="0.8549257914203281" width="5" fill="black"><title>UK land based bioenergy: 17.66</title></rect><rect x="1135" y="642.264334288043" height="0.7813421445936228" width="5" fill="black"><title>District heating: 16.14</title></rect><rect x="0" y="643.9572422679958" height="0.7813421445936228" width="5" fill="black"><title>District heating: 16.14</title></rect><rect x="1135" y="648.0456764326366" height="0.7155041448013435" width="5" fill="black"><title>Domestic aviation: 14.78</title></rect><rect x="1135" y="653.7611805774379" height="0.6980764389739988" width="5" fill="black"><title>Rail transport: 14.420000000000002</title></rect><rect x="1135" y="659.4592570164119" height="0.5407429835880748" width="5" fill="black"><title>Agriculture: 11.169999999999998</title></rect><rect x="0" y="649.7385844125894" height="0.2575427638932979" width="5" fill="black"><title>Hydro: 5.32</title></rect><rect x="0" y="654.9961271764827" height="0.0038728235172129644" width="5" fill="black"><title>Wind: 0.08</title></rect></g><g fill="none" stroke-opacity="1"><g style="mix-blend-mode: multiply;"><path d="M5,610.581777309127C570,610.581777309127,570,628.1087946540953,1135,628.1087946540953" stroke="rgb(240, 112, 74)" stroke-width="3.09632240199556"/><title>Coal reserves → Coal: 63.96</title></g><g style="mix-blend-mode: multiply;"><path d="M5,632.3430010157358C570,632.3430010157358,570,630.4162713159326,1135,630.4162713159326" stroke="rgb(228, 86, 73)" stroke-width="1.5186309216791858"/><title>Coal imports → Coal: 31.37</title></g><g style="mix-blend-mode: multiply;"><path d="M5,573.2111956286384C570,573.2111956286384,570,367.21508781627335,1135,367.21508781627335" stroke="rgb(137, 207, 165)" stroke-width="5.213788660020667"/><title>Oil reserves → Oil: 107.7</title></g><g style="mix-blend-mode: multiply;"><path d="M5,501.9969202251167C570,501.9969202251167,570,345.91286411142477,1135,345.91286411142477" stroke="rgb(169, 221, 162)" stroke-width="37.390658749676525"/><title>Oil imports → Oil: 772.37</title></g><g style="mix-blend-mode: multiply;"><path d="M5,602.043226871762C570,602.043226871762,570,209.85178968455864,1135,209.85178968455864" stroke="rgb(254, 238, 163)" stroke-width="3.980778472734442"/><title>Gas reserves → Natural Gas: 82.23</title></g><g style="mix-blend-mode: multiply;"><path d="M5,271.08174122145334C570,271.08174122145334,570,158.62038583884492,1135,158.62038583884492" stroke="rgb(254, 221, 141)" stroke-width="98.48202921869306"/><title>Gas imports → Natural Gas: 2034.32</title></g><g style="mix-blend-mode: multiply;"><path d="M5,638.5297793722856C570,638.5297793722856,570,621.1331705573874,1135,621.1331705573874" stroke="rgb(74, 108, 174)" stroke-width="1"/><title>UK land based bioenergy → Bio-conversion: 17.66</title></g><g style="mix-blend-mode: multiply;"><path d="M5,625.6779289548128C570,625.6779289548128,570,619.7999510615938,1135,619.7999510615938" stroke="rgb(158, 1, 66)" stroke-width="1.8115132001668834"/><title>Agricultural 'waste' → Bio-conversion: 37.42</title></g><g style="mix-blend-mode: multiply;"><path d="M5,618.7957367254572C570,618.7957367254572,570,617.9177588322382,1135,617.9177588322382" stroke="rgb(105, 189, 169)" stroke-width="1.952871258544417"/><title>Other waste → Bio-conversion: 40.34</title></g><g style="mix-blend-mode: multiply;"><path d="M5,617.4746198031548C570,617.4746198031548,570,580.025314182808,1135,580.025314182808" stroke="rgb(105, 189, 169)" stroke-width="1"/><title>Other waste → Solid: 14.24</title></g><g style="mix-blend-mode: multiply;"><path d="M5,592.7451189220876C570,592.7451189220876,570,577.3729141764705,1135,577.3729141764705" stroke="rgb(209, 60, 75)" stroke-width="4.615437426614395"/><title>Coal → Solid: 95.34</title></g><g style="mix-blend-mode: multiply;"><path d="M5,456.99912509396C570,456.99912509396,570,300.5403733049797,1135,300.5403733049797" stroke="rgb(200, 233, 159)" stroke-width="42.604931512636846"/><title>Oil → Liquid: 880.08</title></g><g style="mix-blend-mode: multiply;"><path d="M5,165.6093227663931C570,165.6093227663931,570,51.231403845713864,1135,51.231403845713864" stroke="rgb(224, 243, 161)" stroke-width="102.4628076914275"/><title>Natural Gas → Gas: 2116.55</title></g><g style="mix-blend-mode: multiply;"><path d="M5,584.7066468213801C570,584.7066468213801,570,574.3344420757631,1135,574.3344420757631" stroke="rgb(185, 31, 72)" stroke-width="1.4615067748005937"/><title>Bio-conversion → Solid: 30.19</title></g><g style="mix-blend-mode: multiply;"><path d="M5,582.9220013343637C570,582.9220013343637,570,322.0301868989423,1135,322.0301868989423" stroke="rgb(185, 31, 72)" stroke-width="1"/><title>Bio-conversion → Liquid: 7.74</title></g><g style="mix-blend-mode: multiply;"><path d="M5,581.7763717276841C570,581.7763717276841,570,103.42108946046298,1135,103.42108946046298" stroke="rgb(185, 31, 72)" stroke-width="1.9165635380707353"/><title>Bio-conversion → Gas: 39.59</title></g><g style="mix-blend-mode: multiply;"><path d="M5,583.5426213029939C570,583.5426213029939,570,453.2560411645933,1135,453.2560411645933" stroke="rgb(185, 31, 72)" stroke-width="1"/><title>Bio-conversion → Losses: 17.9</title></g><g style="mix-blend-mode: multiply;"><path d="M5,559.6328915380567C570,559.6328915380567,570,273.44349462469717,1135,273.44349462469717" stroke="rgb(78, 164, 176)" stroke-width="1.5888258479283033"/><title>Solid → Thermal generation: 32.82</title></g><g style="mix-blend-mode: multiply;"><path d="M5,32.9034513899036C570,32.9034513899036,570,244.74563031082945,1135,244.74563031082945" stroke="rgb(253, 198, 118)" stroke-width="55.80690277980709"/><title>Gas → Thermal generation: 1152.79</title></g><g style="mix-blend-mode: multiply;"><path d="M5,382.32781338623846C570,382.32781338623846,570,642.6550053603398,1135,642.6550053603398" stroke="rgb(66, 136, 181)" stroke-width="1"/><title>Thermal generation → District heating: 16.14</title></g><g style="mix-blend-mode: multiply;"><path d="M5,367.9942514976385C570,367.9942514976385,570,472.6322041118824,1135,472.6322041118824" stroke="rgb(66, 136, 181)" stroke-width="27.885781632606353"/><title>Thermal generation → Electricity grid: 576.03</title></g><g style="mix-blend-mode: multiply;"><path d="M5,339.68705825606764C570,339.68705825606764,570,436.49542918806264,1135,436.49542918806264" stroke="rgb(66, 136, 181)" stroke-width="28.72860485053542"/><title>Thermal generation → Losses: 593.44</title></g><g style="mix-blend-mode: multiply;"><path d="M5,654.9980635882413C570,654.9980635882413,570,486.83457410383744,1135,486.83457410383744" stroke="rgb(94, 79, 162)" stroke-width="1"/><title>Wind → Electricity grid: 0.08</title></g><g style="mix-blend-mode: multiply;"><path d="M5,649.867355794536C570,649.867355794536,570,486.7038663101322,1135,486.7038663101322" stroke="rgb(251, 248, 176)" stroke-width="1"/><title>Hydro → Electricity grid: 5.32</title></g><g style="mix-blend-mode: multiply;"><path d="M5,537.7026014811789C570,537.7026014811789,570,451.84125032346884,1135,451.84125032346884" stroke="rgb(252, 172, 99)" stroke-width="1.9630374202770475"/><title>Electricity grid → Losses: 40.55</title></g><g style="mix-blend-mode: multiply;"><path d="M5,644.3479133402926C570,644.3479133402926,570,415.5732835030042,1135,415.5732835030042" stroke="rgb(248, 142, 83)" stroke-width="1"/><title>District heating → Industry: 16.14</title></g><g style="mix-blend-mode: multiply;"><path d="M5,540.1521623558033C570,540.1521623558033,570,518.3781803362667,1135,518.3781803362667" stroke="rgb(252, 172, 99)" stroke-width="2.9360843289717122"/><title>Electricity grid → Heating and cooling - homes: 60.65</title></g><g style="mix-blend-mode: multiply;"><path d="M5,89.0625390583054C570,89.0625390583054,570,504.3733243436885,1135,504.3733243436885" stroke="rgb(253, 198, 118)" stroke-width="25.07362765618481"/><title>Gas → Heating and cooling - homes: 517.94</title></g><g style="mix-blend-mode: multiply;"><path d="M5,543.0504866554824C570,543.0504866554824,570,567.843405021644,1135,567.843405021644" stroke="rgb(252, 172, 99)" stroke-width="1.520567333437782"/><title>Electricity grid → Heating and cooling - commercial: 31.41</title></g><g style="mix-blend-mode: multiply;"><path d="M5,105.02389708147545C570,105.02389708147545,570,563.6585771598474,1135,563.6585771598474" stroke="rgb(253, 198, 118)" stroke-width="6.8490883901552815"/><title>Gas → Heating and cooling - commercial: 141.48</title></g><g style="mix-blend-mode: multiply;"><path d="M5,546.3135825201871C570,546.3135825201871,570,599.5306754028178,1135,599.5306754028178" stroke="rgb(252, 172, 99)" stroke-width="5.00562439597156"/><title>Electricity grid → Lighting &amp; appliances - homes: 103.4</title></g><g style="mix-blend-mode: multiply;"><path d="M5,108.6428086068222C570,108.6428086068222,570,596.8334958745628,1135,596.8334958745628" stroke="rgb(253, 198, 118)" stroke-width="1"/><title>Gas → Lighting &amp; appliances - homes: 8.03</title></g><g style="mix-blend-mode: multiply;"><path d="M5,551.0512559390629C570,551.0512559390629,570,609.7064619820759,1135,609.7064619820759" stroke="rgb(252, 172, 99)" stroke-width="4.46972244178002"/><title>Electricity grid → Lighting &amp; appliances - commercial: 92.33</title></g><g style="mix-blend-mode: multiply;"><path d="M5,109.05623251728252C570,109.05623251728252,570,607.2525441809947,1135,607.2525441809947" stroke="rgb(253, 198, 118)" stroke-width="1"/><title>Gas → Lighting &amp; appliances - commercial: 9.05</title></g><g style="mix-blend-mode: multiply;"><path d="M5,531.2066661854977C570,531.2066661854977,570,404.534284170186,1135,404.534284170186" stroke="rgb(252, 172, 99)" stroke-width="11.028833171085498"/><title>Electricity grid → Industry: 227.82</title></g><g style="mix-blend-mode: multiply;"><path d="M5,562.9942602995102C570,562.9942602995102,570,412.6156565932181,1135,412.6156565932181" stroke="rgb(78, 164, 176)" stroke-width="5.133911674978567"/><title>Solid → Industry: 106.05</title></g><g style="mix-blend-mode: multiply;"><path d="M5,392.54160204625913C570,392.54160204625913,570,394.19674999691944,1135,394.19674999691944" stroke="rgb(241, 249, 171)" stroke-width="9.646235175447707"/><title>Liquid → Industry: 199.26</title></g><g style="mix-blend-mode: multiply;"><path d="M5,68.08272791126309C570,68.08272791126309,570,382.09780727773966,1135,382.09780727773966" stroke="rgb(253, 198, 118)" stroke-width="14.551650262911902"/><title>Gas → Industry: 300.59</title></g><g style="mix-blend-mode: multiply;"><path d="M5,553.730281607081C570,553.730281607081,570,659.8487178313595,1135,659.8487178313595" stroke="rgb(252, 172, 99)" stroke-width="1"/><title>Electricity grid → Agriculture: 4.47</title></g><g style="mix-blend-mode: multiply;"><path d="M5,565.5827587178138C570,565.5827587178138,570,659.9784574191856,1135,659.9784574191856" stroke="rgb(78, 164, 176)" stroke-width="1"/><title>Solid → Agriculture: 0.89</title></g><g style="mix-blend-mode: multiply;"><path d="M5,430.6073423452763C570,430.6073423452763,570,659.6512038319828,1135,659.6512038319828" stroke="rgb(241, 249, 171)" stroke-width="1"/><title>Liquid → Agriculture: 3.69</title></g><g style="mix-blend-mode: multiply;"><path d="M5,109.32660400907655C570,109.32660400907655,570,659.5105719280148,1135,659.5105719280148" stroke="rgb(253, 198, 118)" stroke-width="1"/><title>Gas → Agriculture: 2.12</title></g><g style="mix-blend-mode: multiply;"><path d="M5,541.9552037545263C570,541.9552037545263,570,540.7698204946302,1135,540.7698204946302" stroke="rgb(252, 172, 99)" stroke-width="1"/><title>Electricity grid → Road transport: 13.84</title></g><g style="mix-blend-mode: multiply;"><path d="M5,405.1590190138031C570,405.1590190138031,570,532.6405218805728,1135,532.6405218805728" stroke="rgb(241, 249, 171)" stroke-width="15.588598759640249"/><title>Liquid → Road transport: 322.01</title></g><g style="mix-blend-mode: multiply;"><path d="M5,553.4541008800112C570,553.4541008800112,570,654.2912732963537,1135,654.2912732963537" stroke="rgb(252, 172, 99)" stroke-width="1"/><title>Electricity grid → Rail transport: 6.94</title></g><g style="mix-blend-mode: multiply;"><path d="M5,430.3369708534823C570,430.3369708534823,570,653.9422350768667,1135,653.9422350768667" stroke="rgb(241, 249, 171)" stroke-width="1"/><title>Liquid → Rail transport: 7.48</title></g><g style="mix-blend-mode: multiply;"><path d="M5,429.7981642816529C570,429.7981642816529,570,648.4034285050373,1135,648.4034285050373" stroke="rgb(241, 249, 171)" stroke-width="1"/><title>Liquid → Domestic aviation: 14.78</title></g><g style="mix-blend-mode: multiply;"><path d="M5,428.89603845361677C570,428.89603845361677,570,636.7199605324076,1135,636.7199605324076" stroke="rgb(241, 249, 171)" stroke-width="1.0887475112707965"/><title>Liquid → National navigation: 22.49</title></g><g style="mix-blend-mode: multiply;"><path d="M5,417.5179250115745C570,417.5179250115745,570,550.6694263468185,1135,550.6694263468185" stroke="rgb(241, 249, 171)" stroke-width="9.129213235902482"/><title>Liquid → International aviation: 188.58</title></g><g style="mix-blend-mode: multiply;"><path d="M5,425.2170981637535C570,425.2170981637535,570,588.5045620100659,1135,588.5045620100659" stroke="rgb(241, 249, 171)" stroke-width="6.269133068455676"/><title>Liquid → International shipping: 129.5</title></g><g style="mix-blend-mode: multiply;"><path d="M5,75.94213913646603C570,75.94213913646603,570,421.5475406690479,1135,421.5475406690479" stroke="rgb(253, 198, 118)" stroke-width="1.1671721874939487"/><title>Gas → Losses: 24.11</title></g></g><g><text x="1131" y="52.18968561474925" text-anchor="end"><tspan alignment-baseline="middle" x="1131" style="font-family: Arial, sans-serif; font-size: 10px; fill: black; font-weight: bold;">Gas</tspan></text><text x="9" y="57.1889594603397" text-anchor="start"><tspan alignment-baseline="middle" x="9" style="font-family: Arial, sans-serif; font-size: 10px; fill: black; font-weight: bold;">Gas</tspan></text><text x="9" y="165.6093227663931" text-anchor="start"><tspan alignment-baseline="middle" x="9" style="font-family: Arial, sans-serif; font-size: 10px; fill: black; font-weight: bold;">Natural Gas</tspan></text><text x="1131" y="160.61077507521213" text-anchor="end"><tspan alignment-baseline="middle" x="1131" style="font-family: Arial, sans-serif; font-size: 10px; fill: black; font-weight: bold;">Natural Gas</tspan></text><text x="9" y="271.0817412214534" text-anchor="start"><tspan alignment-baseline="middle" x="9" style="font-family: Arial, sans-serif; font-size: 10px; fill: black; font-weight: bold;">Gas imports</tspan></text><text x="9" y="354.0206201446676" text-anchor="start"><tspan alignment-baseline="middle" x="9" style="font-family: Arial, sans-serif; font-size: 10px; fill: black; font-weight: bold;">Thermal generation</tspan></text><text x="1131" y="245.5400432347936" text-anchor="end"><tspan alignment-baseline="middle" x="1131" style="font-family: Arial, sans-serif; font-size: 10px; fill: black; font-weight: bold;">Thermal generation</tspan></text><text x="1131" y="300.72772114262386" text-anchor="end"><tspan alignment-baseline="middle" x="1131" style="font-family: Arial, sans-serif; font-size: 10px; fill: black; font-weight: bold;">Liquid</tspan></text><text x="9" y="409.2075718980884" text-anchor="start"><tspan alignment-baseline="middle" x="9" style="font-family: Arial, sans-serif; font-size: 10px; fill: black; font-weight: bold;">Liquid</tspan></text><text x="9" y="456.99912509396" text-anchor="start"><tspan alignment-baseline="middle" x="9" style="font-family: Arial, sans-serif; font-size: 10px; fill: black; font-weight: bold;">Oil</tspan></text><text x="1131" y="348.5197584414351" text-anchor="end"><tspan alignment-baseline="middle" x="1131" style="font-family: Arial, sans-serif; font-size: 10px; fill: black; font-weight: bold;">Oil</tspan></text><text x="1131" y="395.39296836079234" text-anchor="end"><tspan alignment-baseline="middle" x="1131" style="font-family: Arial, sans-serif; font-size: 10px; fill: black; font-weight: bold;">Industry</tspan></text><text x="9" y="501.9969202251167" text-anchor="start"><tspan alignment-baseline="middle" x="9" style="font-family: Arial, sans-serif; font-size: 10px; fill: black; font-weight: bold;">Oil imports</tspan></text><text x="1131" y="437.3266339354401" text-anchor="end"><tspan alignment-baseline="middle" x="1131" style="font-family: Arial, sans-serif; font-size: 10px; fill: black; font-weight: bold;">Losses</tspan></text><text x="1131" y="472.76291190558766" text-anchor="end"><tspan alignment-baseline="middle" x="1131" style="font-family: Arial, sans-serif; font-size: 10px; fill: black; font-weight: bold;">Electricity grid</tspan></text><text x="9" y="539.7653641070237" text-anchor="start"><tspan alignment-baseline="middle" x="9" style="font-family: Arial, sans-serif; font-size: 10px; fill: black; font-weight: bold;">Electricity grid</tspan></text><text x="1131" y="505.84136650817436" text-anchor="end"><tspan alignment-baseline="middle" x="1131" style="font-family: Arial, sans-serif; font-size: 10px; fill: black; font-weight: bold;">Heating and cooling - homes</tspan></text><text x="1131" y="532.9755211148099" text-anchor="end"><tspan alignment-baseline="middle" x="1131" style="font-family: Arial, sans-serif; font-size: 10px; fill: black; font-weight: bold;">Road transport</tspan></text><text x="1131" y="550.6694263468185" text-anchor="end"><tspan alignment-baseline="middle" x="1131" style="font-family: Arial, sans-serif; font-size: 10px; fill: black; font-weight: bold;">International aviation</tspan></text><text x="1131" y="564.4188608265663" text-anchor="end"><tspan alignment-baseline="middle" x="1131" style="font-family: Arial, sans-serif; font-size: 10px; fill: black; font-weight: bold;">Heating and cooling - commercial</tspan></text><text x="1131" y="576.9868420821005" text-anchor="end"><tspan alignment-baseline="middle" x="1131" style="font-family: Arial, sans-serif; font-size: 10px; fill: black; font-weight: bold;">Solid</tspan></text><text x="9" y="562.2213899563603" text-anchor="start"><tspan alignment-baseline="middle" x="9" style="font-family: Arial, sans-serif; font-size: 10px; fill: black; font-weight: bold;">Solid</tspan></text><text x="1131" y="588.5045620100659" text-anchor="end"><tspan alignment-baseline="middle" x="1131" style="font-family: Arial, sans-serif; font-size: 10px; fill: black; font-weight: bold;">International shipping</tspan></text><text x="1131" y="599.3363080725486" text-anchor="end"><tspan alignment-baseline="middle" x="1131" style="font-family: Arial, sans-serif; font-size: 10px; fill: black; font-weight: bold;">Lighting &amp; appliances - homes</tspan></text><text x="9" y="573.2111956286385" text-anchor="start"><tspan alignment-baseline="middle" x="9" style="font-family: Arial, sans-serif; font-size: 10px; fill: black; font-weight: bold;">Oil reserves</tspan></text><text x="1131" y="609.4874054018846" text-anchor="end"><tspan alignment-baseline="middle" x="1131" style="font-family: Arial, sans-serif; font-size: 10px; fill: black; font-weight: bold;">Lighting &amp; appliances - commercial</tspan></text><text x="9" y="583.1277450837147" text-anchor="start"><tspan alignment-baseline="middle" x="9" style="font-family: Arial, sans-serif; font-size: 10px; fill: black; font-weight: bold;">Bio-conversion</tspan></text><text x="1131" y="619.2509783280317" text-anchor="end"><tspan alignment-baseline="middle" x="1131" style="font-family: Arial, sans-serif; font-size: 10px; fill: black; font-weight: bold;">Bio-conversion</tspan></text><text x="9" y="592.7451189220876" text-anchor="start"><tspan alignment-baseline="middle" x="9" style="font-family: Arial, sans-serif; font-size: 10px; fill: black; font-weight: bold;">Coal</tspan></text><text x="1131" y="628.8681101149348" text-anchor="end"><tspan alignment-baseline="middle" x="1131" style="font-family: Arial, sans-serif; font-size: 10px; fill: black; font-weight: bold;">Coal</tspan></text><text x="9" y="602.043226871762" text-anchor="start"><tspan alignment-baseline="middle" x="9" style="font-family: Arial, sans-serif; font-size: 10px; fill: black; font-weight: bold;">Gas reserves</tspan></text><text x="9" y="610.5817773091269" text-anchor="start"><tspan alignment-baseline="middle" x="9" style="font-family: Arial, sans-serif; font-size: 10px; fill: black; font-weight: bold;">Coal reserves</tspan></text><text x="9" y="618.451055432427" text-anchor="start"><tspan alignment-baseline="middle" x="9" style="font-family: Arial, sans-serif; font-size: 10px; fill: black; font-weight: bold;">Other waste</tspan></text><text x="9" y="625.6779289548128" text-anchor="start"><tspan alignment-baseline="middle" x="9" style="font-family: Arial, sans-serif; font-size: 10px; fill: black; font-weight: bold;">Agricultural 'waste'</tspan></text><text x="9" y="632.3430010157358" text-anchor="start"><tspan alignment-baseline="middle" x="9" style="font-family: Arial, sans-serif; font-size: 10px; fill: black; font-weight: bold;">Coal imports</tspan></text><text x="1131" y="636.7199605324076" text-anchor="end"><tspan alignment-baseline="middle" x="1131" style="font-family: Arial, sans-serif; font-size: 10px; fill: black; font-weight: bold;">National navigation</tspan></text><text x="9" y="638.5297793722856" text-anchor="start"><tspan alignment-baseline="middle" x="9" style="font-family: Arial, sans-serif; font-size: 10px; fill: black; font-weight: bold;">UK land based bioenergy</tspan></text><text x="1131" y="642.6550053603398" text-anchor="end"><tspan alignment-baseline="middle" x="1131" style="font-family: Arial, sans-serif; font-size: 10px; fill: black; font-weight: bold;">District heating</tspan></text><text x="9" y="644.3479133402925" text-anchor="start"><tspan alignment-baseline="middle" x="9" style="font-family: Arial, sans-serif; font-size: 10px; fill: black; font-weight: bold;">District heating</tspan></text><text x="1131" y="648.4034285050373" text-anchor="end"><tspan alignment-baseline="middle" x="1131" style="font-family: Arial, sans-serif; font-size: 10px; fill: black; font-weight: bold;">Domestic aviation</tspan></text><text x="1131" y="654.110218796925" text-anchor="end"><tspan alignment-baseline="middle" x="1131" style="font-family: Arial, sans-serif; font-size: 10px; fill: black; font-weight: bold;">Rail transport</tspan></text><text x="1131" y="659.7296285082059" text-anchor="end"><tspan alignment-baseline="middle" x="1131" style="font-family: Arial, sans-serif; font-size: 10px; fill: black; font-weight: bold;">Agriculture</tspan></text><text x="9" y="649.867355794536" text-anchor="start"><tspan alignment-baseline="middle" x="9" style="font-family: Arial, sans-serif; font-size: 10px; fill: black; font-weight: bold;">Hydro</tspan></text><text x="9" y="654.9980635882413" text-anchor="start"><tspan alignment-baseline="middle" x="9" style="font-family: Arial, sans-serif; font-size: 10px; fill: black; font-weight: bold;">Wind</tspan></text></g><g><text x="1137.5" y="-3.9999999999998863" text-anchor="middle" style="font-family: Arial, sans-serif; font-size: 12px; fill: rgb(123, 123, 123); font-weight: bold;">To</text><text x="2.5" y="1.0000000000000568" text-anchor="middle" style="font-family: Arial, sans-serif; font-size: 12px; fill: rgb(123, 123, 123); font-weight: bold;">From</text></g></g></svg>